<mxfile host="app.diagrams.net" agent="Mozilla/5.0 (Windows NT 10.0; Win64; x64) AppleWebKit/537.36 (KHTML, like Gecko) Chrome/130.0.0.0 Safari/537.36" version="24.8.3">
  <diagram name="Page-1" id="TpoUq0fpi_IcnKPPIvao">
    <mxGraphModel dx="3462" dy="1656" grid="1" gridSize="10" guides="1" tooltips="1" connect="1" arrows="1" fold="1" page="1" pageScale="1" pageWidth="850" pageHeight="1100" math="0" shadow="0">
      <root>
        <mxCell id="0" />
        <mxCell id="1" parent="0" />
        <mxCell id="KOHZB-vr-Sf9jERi5HnX-3" value="" style="edgeStyle=orthogonalEdgeStyle;rounded=0;orthogonalLoop=1;jettySize=auto;html=1;" edge="1" parent="1" source="KOHZB-vr-Sf9jERi5HnX-1" target="KOHZB-vr-Sf9jERi5HnX-2">
          <mxGeometry relative="1" as="geometry" />
        </mxCell>
        <mxCell id="KOHZB-vr-Sf9jERi5HnX-1" value="3d app" style="whiteSpace=wrap;html=1;aspect=fixed;" vertex="1" parent="1">
          <mxGeometry x="104" y="12" width="100" height="100" as="geometry" />
        </mxCell>
        <mxCell id="KOHZB-vr-Sf9jERi5HnX-2" value="" style="shape=singleArrow;whiteSpace=wrap;html=1;arrowWidth=0.4;arrowSize=0.4;rotation=90;" vertex="1" parent="1">
          <mxGeometry x="114" y="122" width="80" height="60" as="geometry" />
        </mxCell>
        <mxCell id="KOHZB-vr-Sf9jERi5HnX-4" value="" style="endArrow=none;html=1;rounded=0;" edge="1" parent="1">
          <mxGeometry width="50" height="50" relative="1" as="geometry">
            <mxPoint x="-113" y="192" as="sourcePoint" />
            <mxPoint x="447" y="192" as="targetPoint" />
            <Array as="points">
              <mxPoint x="117" y="192" />
              <mxPoint x="357" y="192" />
            </Array>
          </mxGeometry>
        </mxCell>
        <mxCell id="KOHZB-vr-Sf9jERi5HnX-46" style="edgeStyle=orthogonalEdgeStyle;rounded=0;orthogonalLoop=1;jettySize=auto;html=1;exitX=0.5;exitY=1;exitDx=0;exitDy=0;entryX=0.5;entryY=0;entryDx=0;entryDy=0;" edge="1" parent="1" source="KOHZB-vr-Sf9jERi5HnX-7" target="KOHZB-vr-Sf9jERi5HnX-40">
          <mxGeometry relative="1" as="geometry" />
        </mxCell>
        <mxCell id="KOHZB-vr-Sf9jERi5HnX-47" style="edgeStyle=orthogonalEdgeStyle;rounded=0;orthogonalLoop=1;jettySize=auto;html=1;exitX=0.5;exitY=1;exitDx=0;exitDy=0;entryX=0.5;entryY=0;entryDx=0;entryDy=0;" edge="1" parent="1" source="KOHZB-vr-Sf9jERi5HnX-7" target="KOHZB-vr-Sf9jERi5HnX-41">
          <mxGeometry relative="1" as="geometry" />
        </mxCell>
        <mxCell id="KOHZB-vr-Sf9jERi5HnX-48" style="edgeStyle=orthogonalEdgeStyle;rounded=0;orthogonalLoop=1;jettySize=auto;html=1;exitX=0.5;exitY=1;exitDx=0;exitDy=0;entryX=0.5;entryY=0;entryDx=0;entryDy=0;" edge="1" parent="1" source="KOHZB-vr-Sf9jERi5HnX-7" target="KOHZB-vr-Sf9jERi5HnX-42">
          <mxGeometry relative="1" as="geometry" />
        </mxCell>
        <mxCell id="KOHZB-vr-Sf9jERi5HnX-7" value="multiplayer service&amp;nbsp;&lt;span style=&quot;white-space: pre;&quot;&gt;&#x9;&lt;/span&gt;" style="rounded=0;whiteSpace=wrap;html=1;" vertex="1" parent="1">
          <mxGeometry x="-36" y="232" width="100" height="60" as="geometry" />
        </mxCell>
        <mxCell id="KOHZB-vr-Sf9jERi5HnX-55" style="edgeStyle=orthogonalEdgeStyle;rounded=0;orthogonalLoop=1;jettySize=auto;html=1;exitX=0.5;exitY=1;exitDx=0;exitDy=0;entryX=0.5;entryY=0;entryDx=0;entryDy=0;" edge="1" parent="1" source="KOHZB-vr-Sf9jERi5HnX-8" target="KOHZB-vr-Sf9jERi5HnX-52">
          <mxGeometry relative="1" as="geometry" />
        </mxCell>
        <mxCell id="KOHZB-vr-Sf9jERi5HnX-56" style="edgeStyle=orthogonalEdgeStyle;rounded=0;orthogonalLoop=1;jettySize=auto;html=1;exitX=0.5;exitY=1;exitDx=0;exitDy=0;entryX=0.5;entryY=0;entryDx=0;entryDy=0;" edge="1" parent="1" source="KOHZB-vr-Sf9jERi5HnX-8" target="KOHZB-vr-Sf9jERi5HnX-53">
          <mxGeometry relative="1" as="geometry" />
        </mxCell>
        <mxCell id="KOHZB-vr-Sf9jERi5HnX-8" value="3d assets management&amp;nbsp;" style="rounded=0;whiteSpace=wrap;html=1;" vertex="1" parent="1">
          <mxGeometry x="84" y="232" width="90" height="60" as="geometry" />
        </mxCell>
        <mxCell id="KOHZB-vr-Sf9jERi5HnX-61" style="edgeStyle=orthogonalEdgeStyle;rounded=0;orthogonalLoop=1;jettySize=auto;html=1;exitX=0.5;exitY=1;exitDx=0;exitDy=0;entryX=0.5;entryY=0;entryDx=0;entryDy=0;" edge="1" parent="1" source="KOHZB-vr-Sf9jERi5HnX-9" target="KOHZB-vr-Sf9jERi5HnX-58">
          <mxGeometry relative="1" as="geometry" />
        </mxCell>
        <mxCell id="KOHZB-vr-Sf9jERi5HnX-9" value="session managment&amp;nbsp;" style="rounded=0;whiteSpace=wrap;html=1;" vertex="1" parent="1">
          <mxGeometry x="194" y="232" width="90" height="60" as="geometry" />
        </mxCell>
        <mxCell id="KOHZB-vr-Sf9jERi5HnX-72" style="edgeStyle=orthogonalEdgeStyle;rounded=0;orthogonalLoop=1;jettySize=auto;html=1;exitX=0.5;exitY=1;exitDx=0;exitDy=0;entryX=0.5;entryY=0;entryDx=0;entryDy=0;" edge="1" parent="1" source="KOHZB-vr-Sf9jERi5HnX-10" target="KOHZB-vr-Sf9jERi5HnX-65">
          <mxGeometry relative="1" as="geometry" />
        </mxCell>
        <mxCell id="KOHZB-vr-Sf9jERi5HnX-73" style="edgeStyle=orthogonalEdgeStyle;rounded=0;orthogonalLoop=1;jettySize=auto;html=1;exitX=0.5;exitY=1;exitDx=0;exitDy=0;entryX=0.5;entryY=0;entryDx=0;entryDy=0;" edge="1" parent="1" source="KOHZB-vr-Sf9jERi5HnX-10" target="KOHZB-vr-Sf9jERi5HnX-66">
          <mxGeometry relative="1" as="geometry" />
        </mxCell>
        <mxCell id="KOHZB-vr-Sf9jERi5HnX-74" style="edgeStyle=orthogonalEdgeStyle;rounded=0;orthogonalLoop=1;jettySize=auto;html=1;exitX=0.5;exitY=1;exitDx=0;exitDy=0;entryX=0.5;entryY=0;entryDx=0;entryDy=0;" edge="1" parent="1" source="KOHZB-vr-Sf9jERi5HnX-10" target="KOHZB-vr-Sf9jERi5HnX-67">
          <mxGeometry relative="1" as="geometry" />
        </mxCell>
        <mxCell id="KOHZB-vr-Sf9jERi5HnX-10" value="db design&amp;nbsp;" style="rounded=0;whiteSpace=wrap;html=1;" vertex="1" parent="1">
          <mxGeometry x="304" y="232" width="90" height="60" as="geometry" />
        </mxCell>
        <mxCell id="KOHZB-vr-Sf9jERi5HnX-78" style="edgeStyle=orthogonalEdgeStyle;rounded=0;orthogonalLoop=1;jettySize=auto;html=1;exitX=0.5;exitY=1;exitDx=0;exitDy=0;entryX=0.5;entryY=0;entryDx=0;entryDy=0;" edge="1" parent="1" source="KOHZB-vr-Sf9jERi5HnX-11" target="KOHZB-vr-Sf9jERi5HnX-75">
          <mxGeometry relative="1" as="geometry" />
        </mxCell>
        <mxCell id="KOHZB-vr-Sf9jERi5HnX-79" style="edgeStyle=orthogonalEdgeStyle;rounded=0;orthogonalLoop=1;jettySize=auto;html=1;exitX=0.5;exitY=1;exitDx=0;exitDy=0;entryX=0.5;entryY=0;entryDx=0;entryDy=0;" edge="1" parent="1" source="KOHZB-vr-Sf9jERi5HnX-11" target="KOHZB-vr-Sf9jERi5HnX-76">
          <mxGeometry relative="1" as="geometry" />
        </mxCell>
        <mxCell id="KOHZB-vr-Sf9jERi5HnX-11" value="api design&amp;nbsp;" style="rounded=0;whiteSpace=wrap;html=1;" vertex="1" parent="1">
          <mxGeometry x="404" y="232" width="100" height="60" as="geometry" />
        </mxCell>
        <mxCell id="KOHZB-vr-Sf9jERi5HnX-12" value="" style="endArrow=classic;html=1;rounded=0;entryX=0.343;entryY=-0.014;entryDx=0;entryDy=0;entryPerimeter=0;" edge="1" parent="1">
          <mxGeometry width="50" height="50" relative="1" as="geometry">
            <mxPoint x="-113" y="192" as="sourcePoint" />
            <mxPoint x="-113.13" y="231.16000000000008" as="targetPoint" />
          </mxGeometry>
        </mxCell>
        <mxCell id="KOHZB-vr-Sf9jERi5HnX-13" value="" style="endArrow=classic;html=1;rounded=0;entryX=0.5;entryY=0;entryDx=0;entryDy=0;" edge="1" parent="1" target="KOHZB-vr-Sf9jERi5HnX-7">
          <mxGeometry width="50" height="50" relative="1" as="geometry">
            <mxPoint x="14" y="192" as="sourcePoint" />
            <mxPoint x="204" y="202" as="targetPoint" />
          </mxGeometry>
        </mxCell>
        <mxCell id="KOHZB-vr-Sf9jERi5HnX-19" value="" style="endArrow=classic;html=1;rounded=0;entryX=0.5;entryY=0;entryDx=0;entryDy=0;" edge="1" parent="1" target="KOHZB-vr-Sf9jERi5HnX-8">
          <mxGeometry width="50" height="50" relative="1" as="geometry">
            <mxPoint x="129" y="192" as="sourcePoint" />
            <mxPoint x="204" y="202" as="targetPoint" />
          </mxGeometry>
        </mxCell>
        <mxCell id="KOHZB-vr-Sf9jERi5HnX-20" value="" style="endArrow=classic;html=1;rounded=0;entryX=0.5;entryY=0;entryDx=0;entryDy=0;" edge="1" parent="1" target="KOHZB-vr-Sf9jERi5HnX-9">
          <mxGeometry width="50" height="50" relative="1" as="geometry">
            <mxPoint x="239" y="192" as="sourcePoint" />
            <mxPoint x="291" y="202" as="targetPoint" />
          </mxGeometry>
        </mxCell>
        <mxCell id="KOHZB-vr-Sf9jERi5HnX-21" value="" style="endArrow=classic;html=1;rounded=0;entryX=0.5;entryY=0;entryDx=0;entryDy=0;" edge="1" parent="1">
          <mxGeometry width="50" height="50" relative="1" as="geometry">
            <mxPoint x="349" y="192" as="sourcePoint" />
            <mxPoint x="349" y="232" as="targetPoint" />
          </mxGeometry>
        </mxCell>
        <mxCell id="KOHZB-vr-Sf9jERi5HnX-22" value="" style="endArrow=classic;html=1;rounded=0;entryX=0.5;entryY=0;entryDx=0;entryDy=0;" edge="1" parent="1">
          <mxGeometry width="50" height="50" relative="1" as="geometry">
            <mxPoint x="447" y="192" as="sourcePoint" />
            <mxPoint x="447" y="232" as="targetPoint" />
          </mxGeometry>
        </mxCell>
        <mxCell id="KOHZB-vr-Sf9jERi5HnX-36" style="edgeStyle=orthogonalEdgeStyle;rounded=0;orthogonalLoop=1;jettySize=auto;html=1;exitX=0.5;exitY=1;exitDx=0;exitDy=0;entryX=0.5;entryY=0;entryDx=0;entryDy=0;" edge="1" parent="1" source="KOHZB-vr-Sf9jERi5HnX-6" target="KOHZB-vr-Sf9jERi5HnX-33">
          <mxGeometry relative="1" as="geometry" />
        </mxCell>
        <mxCell id="KOHZB-vr-Sf9jERi5HnX-38" style="edgeStyle=orthogonalEdgeStyle;rounded=0;orthogonalLoop=1;jettySize=auto;html=1;exitX=0.5;exitY=1;exitDx=0;exitDy=0;entryX=0.5;entryY=0;entryDx=0;entryDy=0;" edge="1" parent="1" source="KOHZB-vr-Sf9jERi5HnX-6" target="KOHZB-vr-Sf9jERi5HnX-35">
          <mxGeometry relative="1" as="geometry" />
        </mxCell>
        <mxCell id="KOHZB-vr-Sf9jERi5HnX-39" style="edgeStyle=orthogonalEdgeStyle;rounded=0;orthogonalLoop=1;jettySize=auto;html=1;exitX=0.5;exitY=1;exitDx=0;exitDy=0;entryX=0.5;entryY=0;entryDx=0;entryDy=0;" edge="1" parent="1" source="KOHZB-vr-Sf9jERi5HnX-6" target="KOHZB-vr-Sf9jERi5HnX-34">
          <mxGeometry relative="1" as="geometry" />
        </mxCell>
        <mxCell id="KOHZB-vr-Sf9jERi5HnX-6" value="user management&amp;nbsp;&lt;span style=&quot;white-space: pre;&quot;&gt;&#x9;&lt;/span&gt;" style="rounded=0;whiteSpace=wrap;html=1;" vertex="1" parent="1">
          <mxGeometry x="-146" y="232" width="90" height="60" as="geometry" />
        </mxCell>
        <mxCell id="KOHZB-vr-Sf9jERi5HnX-33" value="&lt;span style=&quot;font-size: 14px;&quot;&gt;features : sign up and login ,&lt;/span&gt;&lt;div&gt;&lt;span style=&quot;font-size: 14px;&quot;&gt;avatar creation ,&lt;/span&gt;&lt;/div&gt;&lt;div&gt;&lt;span style=&quot;font-size: 14px;&quot;&gt;user profile&amp;nbsp;&lt;/span&gt;&lt;/div&gt;&lt;div&gt;&lt;span style=&quot;font-size: 14px;&quot;&gt;&lt;br&gt;&lt;/span&gt;&lt;/div&gt;" style="rounded=0;whiteSpace=wrap;html=1;" vertex="1" parent="1">
          <mxGeometry x="-689" y="352" width="120" height="98" as="geometry" />
        </mxCell>
        <mxCell id="KOHZB-vr-Sf9jERi5HnX-34" value="authentication : rest api&amp;nbsp;" style="rounded=0;whiteSpace=wrap;html=1;" vertex="1" parent="1">
          <mxGeometry x="-552" y="351" width="121" height="49" as="geometry" />
        </mxCell>
        <mxCell id="KOHZB-vr-Sf9jERi5HnX-35" value="database : mongo db&amp;nbsp;" style="rounded=0;whiteSpace=wrap;html=1;" vertex="1" parent="1">
          <mxGeometry x="-420" y="353" width="121" height="60" as="geometry" />
        </mxCell>
        <mxCell id="KOHZB-vr-Sf9jERi5HnX-40" value="features : Realtime user position,&lt;div&gt;interaction and events&amp;nbsp;&lt;span style=&quot;white-space: pre;&quot;&gt;&#x9;&lt;/span&gt;&lt;/div&gt;" style="rounded=0;whiteSpace=wrap;html=1;" vertex="1" parent="1">
          <mxGeometry x="-267" y="421" width="120" height="60" as="geometry" />
        </mxCell>
        <mxCell id="KOHZB-vr-Sf9jERi5HnX-41" value="technology :websocket and socket.io&amp;nbsp;" style="rounded=0;whiteSpace=wrap;html=1;" vertex="1" parent="1">
          <mxGeometry x="-130" y="420" width="121" height="60" as="geometry" />
        </mxCell>
        <mxCell id="KOHZB-vr-Sf9jERi5HnX-42" value="db : reddis&amp;nbsp;" style="rounded=0;whiteSpace=wrap;html=1;" vertex="1" parent="1">
          <mxGeometry x="2" y="422" width="121" height="60" as="geometry" />
        </mxCell>
        <mxCell id="KOHZB-vr-Sf9jERi5HnX-52" value="feature : store the gltf file and deliver&amp;nbsp;" style="rounded=0;whiteSpace=wrap;html=1;" vertex="1" parent="1">
          <mxGeometry x="143" y="549" width="120" height="60" as="geometry" />
        </mxCell>
        <mxCell id="KOHZB-vr-Sf9jERi5HnX-53" value="db&amp;nbsp; : aws s3&amp;nbsp;" style="rounded=0;whiteSpace=wrap;html=1;" vertex="1" parent="1">
          <mxGeometry x="280" y="548" width="121" height="60" as="geometry" />
        </mxCell>
        <mxCell id="KOHZB-vr-Sf9jERi5HnX-58" value="feature : logs and user action&amp;nbsp;" style="rounded=0;whiteSpace=wrap;html=1;" vertex="1" parent="1">
          <mxGeometry x="553" y="511" width="120" height="60" as="geometry" />
        </mxCell>
        <mxCell id="KOHZB-vr-Sf9jERi5HnX-65" value="mongodb&amp;nbsp;" style="rounded=0;whiteSpace=wrap;html=1;" vertex="1" parent="1">
          <mxGeometry x="703" y="461" width="120" height="60" as="geometry" />
        </mxCell>
        <mxCell id="KOHZB-vr-Sf9jERi5HnX-66" value="reddis for active session&amp;nbsp;" style="rounded=0;whiteSpace=wrap;html=1;" vertex="1" parent="1">
          <mxGeometry x="840" y="460" width="121" height="60" as="geometry" />
        </mxCell>
        <mxCell id="KOHZB-vr-Sf9jERi5HnX-67" value="aws s3 for assets store&amp;nbsp;" style="rounded=0;whiteSpace=wrap;html=1;" vertex="1" parent="1">
          <mxGeometry x="972" y="462" width="121" height="60" as="geometry" />
        </mxCell>
        <mxCell id="KOHZB-vr-Sf9jERi5HnX-75" value="api : authentication&amp;nbsp;&lt;span style=&quot;white-space: pre;&quot;&gt;&#x9;&lt;/span&gt;" style="rounded=0;whiteSpace=wrap;html=1;" vertex="1" parent="1">
          <mxGeometry x="1123" y="423" width="120" height="60" as="geometry" />
        </mxCell>
        <mxCell id="KOHZB-vr-Sf9jERi5HnX-76" value="session management&amp;nbsp;" style="rounded=0;whiteSpace=wrap;html=1;" vertex="1" parent="1">
          <mxGeometry x="1260" y="422" width="121" height="60" as="geometry" />
        </mxCell>
      </root>
    </mxGraphModel>
  </diagram>
</mxfile>
